<svg width="140px" height="50px" xmlns="http://www.w3.org/2000/svg" viewBox="-9.628124999999955 14 519.2562499999999 122" style="background: rgba(0, 0, 0, 0);" preserveAspectRatio="xMidYMid"><defs><filter id="editing-metal-beveled"><feGaussianBlur stdDeviation="4" in="SourceAlpha" result="blur"></feGaussianBlur><feSpecularLighting surfaceScale="5" specularConstant="0.8" specularExponent="7.5" lighting-color="#fff" in="blur" result="specular"><fePointLight x="-250" y="-50" z="300"></fePointLight></feSpecularLighting><feComposite operator="in" in="specular" in2="SourceAlpha" result="comp"></feComposite><feComposite in="SourceGraphic" in2="comp" operator="arithmetic" k1="0" k2="1" k3="1" k4="0"></feComposite></filter></defs><g filter="url(#editing-metal-beveled)"><g transform="translate(66.89498353004456, 104.76000022888184)"><path d="M42.62-26.56L42.62-26.56L42.62-26.56Q42.62 0.70 13.06 0.70L13.06 0.70L13.06 0.70Q8.32 0.70 0.51-0.45L0.51-0.45L7.68-38.27L7.68-38.27Q8.19-40.83 8.51-42.30L8.51-42.30L8.51-42.30Q18.24-43.01 22.56-43.01L22.56-43.01L22.56-43.01Q26.88-43.01 30.85-42.11L30.85-42.11L30.85-42.11Q34.82-41.22 37.44-39.23L37.44-39.23L37.44-39.23Q42.62-35.33 42.62-26.56ZM29.44-28.93L29.44-28.93L29.44-28.93Q29.44-38.46 22.59-38.46L22.59-38.46L21.95-38.46L21.95-38.46Q21.63-38.46 21.31-38.40L21.31-38.40L14.72-4.03L14.72-4.03Q14.98-3.90 15.23-3.90L15.23-3.90L15.74-3.90L15.74-3.90Q18.11-3.90 20.58-5.38L20.58-5.38L20.58-5.38Q23.04-6.85 24.96-9.86L24.96-9.86L24.96-9.86Q29.44-16.83 29.44-28.93ZM48.67-1.92L48.67-1.92L48.67-1.92Q47.17-3.58 46.50-6.21L46.50-6.21L46.50-6.21Q45.82-8.83 45.82-13.12L45.82-13.12L45.82-13.12Q45.82-17.41 47.30-21.31L47.30-21.31L47.30-21.31Q48.77-25.22 51.46-28.03L51.46-28.03L51.46-28.03Q56.96-33.92 66.05-33.92L66.05-33.92L66.05-33.92Q69.31-33.92 71.68-32.83L71.68-32.83L82.62-33.92L77.89-8.96L77.89-8.96Q77.70-8.19 77.70-6.78L77.70-6.78L77.70-6.78Q77.70-5.38 78.56-4.48L78.56-4.48L78.56-4.48Q79.42-3.58 80.70-3.46L80.70-3.46L80.70-3.46Q80.06-1.28 77.73 0L77.73 0L77.73 0Q75.39 1.28 72.77 1.28L72.77 1.28L72.77 1.28Q70.14 1.28 68.38 0.29L68.38 0.29L68.38 0.29Q66.62-0.70 66.11-2.37L66.11-2.37L66.11-2.37Q65.09-0.77 62.91 0.26L62.91 0.26L62.91 0.26Q60.74 1.28 57.82 1.28L57.82 1.28L57.82 1.28Q54.91 1.28 52.54 0.51L52.54 0.51L52.54 0.51Q50.18-0.26 48.67-1.92ZM62.18-27.90L62.18-27.90L62.18-27.90Q61.44-26.75 60.80-24.80L60.80-24.80L60.80-24.80Q60.16-22.85 59.10-17.63L59.10-17.63L59.10-17.63Q58.05-12.42 58.05-8.70L58.05-8.70L58.05-8.70Q58.05-4.99 58.62-3.90L58.62-3.90L58.62-3.90Q59.20-2.82 60.22-2.82L60.22-2.82L60.22-2.82Q62.27-2.82 63.78-4.77L63.78-4.77L63.78-4.77Q65.28-6.72 65.86-10.18L65.86-10.18L69.25-28.93L69.25-28.93Q67.90-30.08 66.34-30.08L66.34-30.08L66.34-30.08Q64.77-30.08 63.84-29.57L63.84-29.57L63.84-29.57Q62.91-29.06 62.18-27.90ZM109.31-31.55L109.31-31.55L109.31-31.55Q111.42-33.92 115.07-33.92L115.07-33.92L115.07-33.92Q117.31-33.92 119.04-32.70L119.04-32.70L119.04-32.70Q120.77-31.49 120.77-29.22L120.77-29.22L120.77-29.22Q120.77-26.94 120.06-24.51L120.06-24.51L120.06-24.51Q119.36-22.08 118.27-19.58L118.27-19.58L118.27-19.58Q116.10-14.72 113.09-10.69L113.09-10.69L113.09-10.69Q108.86-4.86 104.80-1.79L104.80-1.79L104.80-1.79Q100.74 1.28 96.32 1.28L96.32 1.28L96.32 1.28Q92.74 1.28 90.56 0.45L90.56 0.45L90.56 0.45Q90.18-12.99 89.70-17.79L89.70-17.79L89.70-17.79Q89.22-22.59 88.83-25.22L88.83-25.22L88.83-25.22Q88.19-30.34 86.27-31.55L86.27-31.55L86.27-31.55Q87.74-32.83 89.18-33.38L89.18-33.38L89.18-33.38Q90.62-33.92 93.60-33.92L93.60-33.92L93.60-33.92Q96.58-33.92 98.69-31.58L98.69-31.58L98.69-31.58Q100.80-29.25 101.22-25.12L101.22-25.12L101.22-25.12Q101.63-20.99 101.63-16L101.63-16L101.63-16Q101.63-11.01 101.25-4.99L101.25-4.99L101.25-4.99Q103.23-6.40 105.34-10.69L105.34-10.69L105.34-10.69Q108.22-16.64 109.25-23.81L109.25-23.81L109.25-23.81Q109.57-25.98 109.57-28.29L109.57-28.29L109.57-28.29Q109.57-30.59 109.31-31.55ZM137.86-3.52L137.86-3.52L137.86-3.52Q135.87 1.28 129.54 1.28L129.54 1.28L129.54 1.28Q126.27 1.28 124.22-0.96L124.22-0.96L124.22-0.96Q122.50-2.94 122.50-4.93L122.50-4.93L122.50-4.93Q122.50-10.11 124.86-20.22L124.86-20.22L127.23-32.64L140.22-33.92L136.32-13.70L136.32-13.70Q135.23-8.96 135.23-7.30L135.23-7.30L135.23-7.30Q135.23-3.65 137.86-3.52ZM128.38-41.54L128.38-41.54L128.38-41.54Q128.38-44.03 130.46-45.38L130.46-45.38L130.46-45.38Q132.54-46.72 135.55-46.72L135.55-46.72L135.55-46.72Q138.56-46.72 140.38-45.38L140.38-45.38L140.38-45.38Q142.21-44.03 142.21-41.54L142.21-41.54L142.21-41.54Q142.21-39.04 140.19-37.76L140.19-37.76L140.19-37.76Q138.18-36.48 135.17-36.48L135.17-36.48L135.17-36.48Q132.16-36.48 130.27-37.76L130.27-37.76L130.27-37.76Q128.38-39.04 128.38-41.54ZM163.46-33.92L163.46-33.92L163.46-33.92Q165.76-33.92 167.55-33.41L167.55-33.41L167.55-33.41Q167.62-33.66 167.74-34.37L167.74-34.37L168.06-36.35L168.06-36.35Q168.32-37.63 168.70-39.74L168.70-39.74L169.73-44.80L182.46-46.08L175.36-8.96L175.36-8.96Q175.30-8.58 175.30-7.94L175.30-7.94L175.30-6.91L175.30-6.91Q175.30-5.50 176.00-4.45L176.00-4.45L176.00-4.45Q176.70-3.39 177.86-3.39L177.86-3.39L177.86-3.39Q176.58-0.38 172.67 0.90L172.67 0.90L172.67 0.90Q171.33 1.28 169.44 1.28L169.44 1.28L169.44 1.28Q167.55 1.28 165.82 0.29L165.82 0.29L165.82 0.29Q164.10-0.70 163.58-2.37L163.58-2.37L163.58-2.37Q162.56-0.70 160.51 0.29L160.51 0.29L160.51 0.29Q158.46 1.28 155.49 1.28L155.49 1.28L155.49 1.28Q152.51 1.28 150.05 0.51L150.05 0.51L150.05 0.51Q147.58-0.26 146.05-1.92L146.05-1.92L146.05-1.92Q143.23-5.18 143.23-12.61L143.23-12.61L143.23-12.61Q143.23-22.21 148.86-28.03L148.86-28.03L148.86-28.03Q154.50-33.92 163.46-33.92ZM163.01-30.08L163.01-30.08L163.01-30.08Q160.64-30.08 159.36-27.52L159.36-27.52L159.36-27.52Q158.08-24.96 156.77-18.62L156.77-18.62L156.77-18.62Q155.46-12.29 155.46-6.59L155.46-6.59L155.46-6.59Q155.46-2.69 157.76-2.69L157.76-2.69L157.76-2.69Q159.81-2.69 161.25-4.74L161.25-4.74L161.25-4.74Q162.69-6.78 163.26-10.18L163.26-10.18L166.72-28.93L166.72-28.93Q165.38-30.08 163.01-30.08ZM223.23-9.86L223.23-9.86L223.23-9.86Q224.45-8.32 224.45-5.34L224.45-5.34L224.45-5.34Q224.45-2.37 222.18-0.54L222.18-0.54L222.18-0.54Q219.90 1.28 215.94 1.28L215.94 1.28L215.94 1.28Q213.63 1.28 210.05 0.77L210.05 0.77L210.05 0.77Q203.01-0.32 200.99-0.32L200.99-0.32L200.99-0.32Q198.98-0.32 198.14-0.22L198.14-0.22L198.14-0.22Q197.31-0.13 195.97 0L195.97 0L203.71-42.24L217.73-42.24L211.33-7.04L211.33-7.04Q212.16-6.91 212.93-6.91L212.93-6.91L214.53-6.91L214.53-6.91Q219.90-6.91 223.23-9.86ZM244.10-3.52L244.10-3.52L244.10-3.52Q242.11 1.28 235.78 1.28L235.78 1.28L235.78 1.28Q232.51 1.28 230.46-0.96L230.46-0.96L230.46-0.96Q228.74-2.94 228.74-4.93L228.74-4.93L228.74-4.93Q228.74-10.11 231.10-20.22L231.10-20.22L233.47-32.64L246.46-33.92L242.56-13.70L242.56-13.70Q241.47-8.96 241.47-7.30L241.47-7.30L241.47-7.30Q241.47-3.65 244.10-3.52ZM234.62-41.54L234.62-41.54L234.62-41.54Q234.62-44.03 236.70-45.38L236.70-45.38L236.70-45.38Q238.78-46.72 241.79-46.72L241.79-46.72L241.79-46.72Q244.80-46.72 246.62-45.38L246.62-45.38L246.62-45.38Q248.45-44.03 248.45-41.54L248.45-41.54L248.45-41.54Q248.45-39.04 246.43-37.76L246.43-37.76L246.43-37.76Q244.42-36.48 241.41-36.48L241.41-36.48L241.41-36.48Q238.40-36.48 236.51-37.76L236.51-37.76L236.51-37.76Q234.62-39.04 234.62-41.54ZM252.32-1.92L252.32-1.92L252.32-1.92Q250.82-3.58 250.14-6.21L250.14-6.21L250.14-6.21Q249.47-8.83 249.47-13.12L249.47-13.12L249.47-13.12Q249.47-17.41 250.94-21.31L250.94-21.31L250.94-21.31Q252.42-25.22 255.10-28.03L255.10-28.03L255.10-28.03Q260.61-33.92 269.70-33.92L269.70-33.92L269.70-33.92Q272.96-33.92 275.33-32.83L275.33-32.83L286.27-33.92L281.54-8.96L281.54-8.96Q281.34-8.19 281.34-6.78L281.34-6.78L281.34-6.78Q281.34-5.38 282.21-4.48L282.21-4.48L282.21-4.48Q283.07-3.58 284.35-3.46L284.35-3.46L284.35-3.46Q283.71-1.28 281.38 0L281.38 0L281.38 0Q279.04 1.28 276.42 1.28L276.42 1.28L276.42 1.28Q273.79 1.28 272.03 0.29L272.03 0.29L272.03 0.29Q270.27-0.70 269.76-2.37L269.76-2.37L269.76-2.37Q268.74-0.77 266.56 0.26L266.56 0.26L266.56 0.26Q264.38 1.28 261.47 1.28L261.47 1.28L261.47 1.28Q258.56 1.28 256.19 0.51L256.19 0.51L256.19 0.51Q253.82-0.26 252.32-1.92ZM265.82-27.90L265.82-27.90L265.82-27.90Q265.09-26.75 264.45-24.80L264.45-24.80L264.45-24.80Q263.81-22.85 262.75-17.63L262.75-17.63L262.75-17.63Q261.70-12.42 261.70-8.70L261.70-8.70L261.70-8.70Q261.70-4.99 262.27-3.90L262.27-3.90L262.27-3.90Q262.85-2.82 263.87-2.82L263.87-2.82L263.87-2.82Q265.92-2.82 267.42-4.77L267.42-4.77L267.42-4.77Q268.93-6.72 269.50-10.18L269.50-10.18L272.90-28.93L272.90-28.93Q271.55-30.08 269.98-30.08L269.98-30.08L269.98-30.08Q268.42-30.08 267.49-29.57L267.49-29.57L267.49-29.57Q266.56-29.06 265.82-27.90ZM316.80 1.28L316.80 1.28L316.80 1.28Q309.06 1.28 309.06-4.74L309.06-4.74L309.06-4.74Q309.12-6.40 309.63-9.22L309.63-9.22L310.78-15.10L310.78-15.10Q312.51-23.42 312.51-25.28L312.51-25.28L312.51-25.28Q312.51-28.99 310.34-28.99L310.34-28.99L310.34-28.99Q306.69-28.99 304.77-19.46L304.77-19.46L300.99 0L288.13 1.28L294.78-32.70L305.28-33.92L304.26-27.65L304.26-27.65Q307.26-33.92 316.48-33.92L316.48-33.92L316.48-33.92Q320.96-33.92 322.85-32.03L322.85-32.03L322.85-32.03Q324.74-30.14 324.74-25.92L324.74-25.92L324.74-25.92Q324.74-21.95 322.69-12.67L322.69-12.67L322.69-12.67Q321.73-8.51 321.73-6.94L321.73-6.94L321.73-6.94Q321.73-5.38 322.59-4.48L322.59-4.48L322.59-4.48Q323.46-3.58 324.74-3.46L324.74-3.46L324.74-3.46Q324.10-1.28 321.89 0L321.89 0L321.89 0Q319.68 1.28 316.80 1.28ZM334.40-26.75L334.40-26.75L334.40-26.75Q336.58-29.82 339.87-31.87L339.87-31.87L339.87-31.87Q343.17-33.92 347.20-33.92L347.20-33.92L347.20-33.92Q351.23-33.92 353.15-32.64L353.15-32.64L365.70-33.92L361.34-9.34L361.34-9.34Q359.10 3.20 354.37 8.13L354.37 8.13L354.37 8.13Q349.82 12.80 340.99 12.80L340.99 12.80L340.99 12.80Q334.27 12.80 330.43 10.69L330.43 10.69L330.43 10.69Q326.59 8.58 326.59 5.06L326.59 5.06L326.59 5.06Q326.59 2.43 328.58 0.93L328.58 0.93L328.58 0.93Q330.56-0.58 333.63-0.58L333.63-0.58L333.63-0.58Q336.32-0.58 338.37 0.64L338.37 0.64L338.37 0.64Q339.58 1.28 340.16 2.18L340.16 2.18L340.16 2.18Q338.69 3.46 338.69 5.57L338.69 5.57L338.69 5.57Q338.69 8.32 341.25 8.32L341.25 8.32L341.25 8.32Q345.54 8.32 347.97-1.79L347.97-1.79L347.97-1.79Q348.67-4.54 349.25-7.30L349.25-7.30L349.25-7.30Q346.37-3.78 339.84-3.78L339.84-3.78L339.84-3.78Q335.30-3.78 332.67-5.95L332.67-5.95L332.67-5.95Q330.05-8.13 330.05-13.25L330.05-13.25L330.05-13.25Q330.05-16.45 331.14-20.06L331.14-20.06L331.14-20.06Q332.22-23.68 334.40-26.75ZM342.72-13.06L342.72-13.06L342.72-13.06Q342.72-8.70 344.96-8.70L344.96-8.70L344.96-8.70Q346.50-8.70 347.97-10.37L347.97-10.37L347.97-10.37Q349.12-11.71 349.57-13.70L349.57-13.70L352.83-30.14L352.83-30.14Q352.51-30.21 352.19-30.34L352.19-30.34L352.19-30.34Q351.55-30.59 350.72-30.59L350.72-30.59L350.72-30.59Q346.82-30.59 344.51-24.19L344.51-24.19L344.51-24.19Q342.72-19.20 342.72-13.06Z" fill="#444"></path></g></g><style>text {
  font-size: 64px;
  font-family: Arial Black;
  dominant-baseline: central;
  text-anchor: middle;
}</style></svg>