 <svg version="1.0" xmlns="http://www.w3.org/2000/svg" width="60.000000pt" height="60.000000pt" viewBox="0 0 700.000000 700.000000" preserveAspectRatio="xMidYMid meet">
<metadata>
Created by potrace 1.12, written by Peter Selinger 2001-2015
</metadata>
<g transform="translate(0.000000,700.000000) scale(0.100000,-0.100000)" fill="#FFFFFF" stroke="none">
<path d="M3045 5749 c-97 -10 -211 -28 -245 -39 -14 -4 -52 -13 -85 -20 -80
-16 -138 -32 -149 -42 -6 -4 -19 -8 -31 -8 -12 0 -25 -4 -31 -8 -5 -4 -27 -14
-49 -21 -67 -21 -168 -69 -305 -144 -272 -148 -562 -421 -745 -702 -118 -180
-273 -538 -263 -607 3 -21 6 -22 99 -19 80 2 97 0 102 -13 8 -21 163 -22 412
-2 301 24 951 3 1223 -40 26 -4 42 -3 42 4 0 40 -623 80 -1065 68 -121 -4
-309 -9 -417 -12 -229 -6 -215 -15 -173 100 24 67 95 226 114 256 6 8 22 37
37 65 14 27 38 67 53 88 14 22 31 49 37 59 7 11 28 37 48 57 20 20 36 42 36
49 0 18 198 214 293 291 166 134 424 273 627 337 93 29 107 33 195 53 193 43
227 46 450 45 165 -1 243 -6 310 -19 50 -9 110 -21 135 -25 72 -14 241 -67
307 -96 17 -8 34 -14 37 -14 8 0 149 -70 221 -110 267 -147 508 -380 694 -669
36 -57 141 -263 141 -277 0 -3 6 -20 14 -37 20 -43 66 -182 78 -232 23 -100
30 -135 38 -199 13 -101 8 -96 104 -96 47 0 87 3 90 8 5 8 -19 195 -33 257
-31 138 -68 267 -91 320 -5 11 -17 40 -27 65 -64 160 -163 330 -287 495 -134
178 -412 423 -598 528 -27 15 -68 38 -91 51 -68 39 -316 146 -336 146 -10 0
-21 3 -25 7 -12 13 -81 33 -113 33 -17 0 -35 5 -38 10 -3 6 -24 10 -45 10 -21
0 -41 4 -44 9 -8 12 -63 20 -276 36 -209 15 -261 16 -375 4z m428 -30 c43 -6
87 -7 98 -4 11 4 25 2 32 -3 7 -5 65 -22 129 -36 111 -25 187 -46 233 -65 11
-5 36 -14 55 -21 41 -14 108 -44 165 -73 22 -11 77 -39 122 -62 45 -23 99 -55
120 -71 21 -16 67 -49 103 -73 161 -110 388 -342 495 -506 21 -33 46 -69 56
-80 9 -11 33 -54 54 -95 20 -41 41 -84 47 -95 15 -26 66 -150 84 -202 8 -23
12 -54 8 -68 -5 -19 -2 -25 10 -25 9 0 16 -8 16 -19 0 -11 5 -23 10 -26 6 -3
10 -13 10 -21 0 -20 -20 -17 -21 4 0 15 -1 14 -8 -3 -4 -10 -3 -32 3 -47 9
-24 12 -26 17 -11 4 12 10 -3 18 -42 7 -33 19 -77 27 -98 16 -42 19 -101 5
-92 -23 14 -18 -15 5 -30 20 -13 23 -20 14 -28 -9 -9 -14 -8 -24 6 -16 21 -32
22 -40 1 -10 -25 -39 -1 -42 37 -9 85 -26 186 -34 204 -5 11 -23 63 -41 115
-43 127 -107 272 -161 360 -23 40 -52 89 -64 108 -51 86 -158 216 -264 323
-194 195 -385 325 -650 441 -87 39 -338 115 -420 128 -41 6 -97 16 -123 21
-67 13 -462 11 -549 -2 -618 -95 -1126 -417 -1450 -919 -82 -127 -169 -312
-197 -420 l-17 -65 -58 -3 c-72 -4 -84 6 -63 50 9 18 20 46 26 61 6 15 15 27
20 27 5 0 7 9 4 21 -5 18 5 49 28 89 5 8 14 26 20 40 38 90 107 231 129 265
15 22 29 47 33 55 12 32 197 251 287 341 113 112 320 272 410 315 19 10 47 26
62 36 14 10 31 18 37 18 5 0 32 13 58 28 26 16 68 36 93 46 25 10 59 23 75 31
17 7 46 18 65 25 19 7 44 16 55 20 11 5 40 13 65 18 147 34 180 42 230 52 166
35 413 43 593 19z"></path>
<path d="M5250 4105 c0 -14 5 -25 10 -25 6 0 10 11 10 25 0 14 -4 25 -10 25
-5 0 -10 -11 -10 -25z"></path>
<path d="M5307 4032 c-3 -4 -3 -20 0 -35 4 -21 8 -25 14 -15 12 18 11 58 0 58
-6 0 -12 -3 -14 -8z"></path>
<path d="M3710 4152 c0 -9 150 -22 257 -22 38 0 65 -5 70 -12 4 -7 8 -187 8
-400 1 -298 4 -391 13 -400 10 -10 76 -13 255 -15 133 -1 377 -5 541 -9 l300
-7 28 -31 c15 -17 28 -34 28 -39 0 -4 7 -24 17 -45 9 -20 15 -43 14 -51 -2
-10 8 -12 48 -6 46 6 51 5 51 -12 0 -10 -4 -23 -8 -28 -8 -9 -32 -77 -61 -170
-14 -47 -17 -53 -66 -165 -184 -421 -557 -800 -995 -1012 -475 -231 -967 -286
-1470 -167 -197 47 -385 123 -577 232 -359 204 -647 505 -830 867 -29 58 -53
111 -53 119 0 8 -14 44 -31 80 -17 36 -33 81 -36 101 -2 19 -8 44 -13 55 -24
56 -44 135 -44 177 -1 27 -4 48 -8 48 -5 0 -8 7 -8 15 0 8 5 15 10 15 6 0 3
11 -5 24 -9 13 -18 48 -20 77 -2 30 -2 46 1 37 7 -22 34 -24 34 -3 0 9 9 15
24 15 32 0 50 -52 50 -142 0 -37 3 -65 7 -62 8 5 42 -104 59 -188 6 -31 18
-62 26 -68 7 -7 14 -22 14 -34 0 -11 6 -32 13 -46 129 -242 167 -312 177 -320
4 -3 11 -14 17 -24 24 -44 125 -166 218 -264 93 -97 278 -256 314 -270 9 -3
43 -24 76 -47 59 -41 201 -115 221 -115 6 0 15 -5 22 -12 12 -12 41 -23 172
-67 152 -50 268 -78 420 -101 100 -15 431 -12 530 5 162 27 195 34 235 44 22
5 59 15 82 20 38 10 91 28 148 51 102 41 182 76 191 82 7 5 40 23 75 39 35 17
92 51 127 75 35 24 65 44 68 44 4 0 54 40 113 89 227 190 404 411 514 642 58
122 77 165 77 174 0 7 20 55 43 103 16 34 -6 51 -27 21 -9 -13 -16 -29 -16
-36 0 -7 -4 -21 -10 -31 -5 -9 -30 -67 -55 -128 -107 -259 -301 -518 -533
-711 -173 -143 -345 -246 -542 -322 -47 -18 -93 -37 -102 -42 -10 -5 -27 -9
-37 -9 -11 0 -23 -4 -26 -10 -3 -5 -19 -10 -35 -10 -16 0 -31 -4 -34 -9 -3 -5
-20 -11 -38 -14 -18 -4 -58 -11 -88 -17 -231 -45 -584 -48 -785 -5 -65 13
-185 45 -212 56 -13 5 -33 13 -45 18 -13 5 -43 15 -68 22 -25 7 -71 26 -103
41 -31 16 -61 28 -65 28 -35 0 -317 180 -432 276 -168 139 -356 366 -450 544
-61 116 -89 175 -90 188 0 7 -4 20 -9 30 -54 107 -121 368 -134 526 l-2 30
-90 0 -90 0 1 -55 c3 -131 50 -346 117 -533 35 -101 158 -350 187 -381 11 -12
20 -24 20 -28 0 -41 293 -388 370 -438 14 -9 53 -41 88 -72 126 -110 382 -263
547 -326 33 -13 69 -27 80 -32 63 -29 272 -86 365 -99 30 -5 129 -16 220 -25
646 -66 1318 189 1785 676 44 46 94 102 110 124 16 22 32 42 35 45 3 3 19 23
35 45 113 149 239 397 294 575 13 41 29 91 36 110 l13 35 158 1 159 2 0 117 0
117 -805 5 -805 5 -5 402 c-3 220 -9 407 -13 414 -10 14 -357 18 -357 4z"></path>
<path d="M812 4143 l-173 -3 3 -113 3 -112 990 -1 c701 -1 1002 -5 1030 -13
22 -6 59 -11 82 -11 23 0 45 -4 48 -10 3 -5 14 -10 24 -10 19 0 110 -33 146
-53 11 -6 29 -15 40 -21 78 -42 150 -135 143 -187 -2 -13 2 -25 7 -27 6 -1 11
15 13 37 9 116 -143 238 -358 289 -171 40 -229 42 -1091 42 -652 0 -839 3
-859 13 -28 14 -47 77 -36 120 5 23 9 24 131 30 69 3 130 9 135 12 22 14 -4
25 -53 23 -29 -1 -130 -4 -225 -5z"></path>
<path d="M3615 4140 c-3 -5 -1 -10 4 -10 6 0 11 5 11 10 0 6 -2 10 -4 10 -3 0
-8 -4 -11 -10z"></path>
<path d="M3600 4075 c0 -14 5 -25 10 -25 6 0 10 11 10 25 0 14 -4 25 -10 25
-5 0 -10 -11 -10 -25z"></path>
<path d="M3455 3880 c3 -5 8 -10 11 -10 2 0 4 5 4 10 0 6 -5 10 -11 10 -5 0
-7 -4 -4 -10z"></path>
<path d="M1805 3781 l-70 -6 -1 -338 c0 -186 3 -340 8 -343 16 -10 953 -4
1033 7 149 19 291 50 370 79 94 35 170 68 223 97 90 49 182 139 221 215 29 58
32 71 29 143 -2 50 -7 80 -15 82 -9 3 -11 -12 -6 -60 5 -57 2 -70 -25 -128
-76 -159 -284 -286 -579 -353 -223 -50 -231 -51 -738 -51 l-480 0 0 310 0 309
94 15 c71 10 122 11 200 5 l106 -9 5 -217 c3 -119 9 -220 13 -225 5 -4 115 -8
245 -8 244 0 288 5 432 52 56 18 148 62 156 75 14 23 -10 19 -64 -10 -32 -17
-105 -44 -163 -59 -99 -26 -115 -27 -347 -28 l-243 0 1 214 c0 148 -3 217 -11
227 -9 11 -45 14 -168 12 -86 -1 -187 -4 -226 -7z"></path>
<path d="M3088 3505 c-32 -22 -56 -45 -45 -45 15 0 69 35 77 51 13 23 13 23
-32 -6z"></path>
<path d="M3604 3273 c8 -107 10 -122 22 -110 10 10 -8 217 -19 217 -6 0 -7
-37 -3 -107z"></path>
<path d="M3612 3112 c-2 -7 -2 -15 0 -18 7 -6 1572 -6 1576 1 14 24 -40 26
-787 28 -633 2 -784 0 -789 -11z"></path>
<path d="M5044 3017 c-11 -29 0 -72 19 -75 16 -3 18 2 15 39 -3 43 -23 64 -34
36z"></path>
</g>
</svg>